<svg width="28" height="29" viewBox="0 0 28 29" fill="none" xmlns="http://www.w3.org/2000/svg">
<rect y="0.5" width="28" height="28" rx="1" fill="white"/>
<rect x="0.5" y="1" width="27" height="27" rx="0.5" stroke="#0A0A0A" stroke-opacity="0.08"/>
<path fill-rule="evenodd" clip-rule="evenodd" d="M5 9.75C5 8.50736 6.00736 7.5 7.25 7.5H20.75C21.9926 7.5 23 8.50736 23 9.75V19.25C23 20.4926 21.9926 21.5 20.75 21.5H7.25C6.00736 21.5 5 20.4926 5 19.25V9.75ZM6.5 15.5607V19.25C6.5 19.6642 6.83579 20 7.25 20H20.75C21.1642 20 21.5 19.6642 21.5 19.25V16.5607L19.2803 14.341C18.9874 14.0481 18.5126 14.0481 18.2197 14.341L16.3107 16.25L16.7803 16.7197C17.0732 17.0126 17.0732 17.4874 16.7803 17.7803C16.4874 18.0732 16.0126 18.0732 15.7197 17.7803L10.5303 12.591C10.2374 12.2981 9.76256 12.2981 9.46967 12.591L6.5 15.5607ZM16 11.5C16 12.0523 15.5523 12.5 15 12.5C14.4477 12.5 14 12.0523 14 11.5C14 10.9477 14.4477 10.5 15 10.5C15.5523 10.5 16 10.9477 16 11.5Z" fill="#0A0A0A" fill-opacity="0.16"/>
</svg>
